<svg width="24" height="24" viewBox="0 0 24 24" fill="none" xmlns="http://www.w3.org/2000/svg">
<g clip-path="url(#clip0_628_53701)">
<path fill-rule="evenodd" clip-rule="evenodd" d="M14.9265 3.59814C15.0065 3.17126 15.3932 2.87172 15.8265 2.90088C17.4922 3.01302 18.5844 3.18866 19.2756 3.34343C19.6215 3.42093 19.8693 3.49365 20.0395 3.55149C20.1247 3.58044 20.1907 3.60578 20.2402 3.62625C20.2651 3.6365 20.2858 3.64554 20.3028 3.65325L20.3254 3.66376L20.3347 3.66823L20.3388 3.67027L20.3407 3.67123L20.3417 3.67171C20.3422 3.67194 20.3426 3.67218 19.9593 4.43882L20.3417 3.67171C20.4753 3.73842 20.5898 3.83925 20.6724 3.96336C21.5484 5.2773 22.3731 7.45718 22.9783 9.81729C23.5881 12.1951 24.0002 14.8552 24.0002 17.1735C24.0002 17.3427 23.9501 17.5082 23.8562 17.6491C23.1969 18.6379 21.1416 20.5174 17.7396 21.1978C17.4254 21.2606 17.1024 21.143 16.9022 20.8927L14.4317 17.8047C13.6777 17.9469 12.8554 18.0307 12.0001 18.0307C11.1448 18.0307 10.3225 17.9469 9.56837 17.8047L7.09791 20.8927C6.89774 21.143 6.57471 21.2606 6.2605 21.1978C2.85845 20.5174 0.803227 18.6379 0.143957 17.6491C0.0500897 17.5082 0 17.3427 0 17.1735C0 14.8552 0.412073 12.1951 1.02176 9.81729C1.62692 7.45718 2.4517 5.2773 3.32765 3.96336C3.41038 3.83925 3.52409 3.73888 3.65751 3.67218L4.04083 4.43882C3.65751 3.67218 3.65798 3.67194 3.65844 3.67171L3.65938 3.67123L3.66132 3.67027L3.66547 3.66823L3.67474 3.66376L3.69737 3.65325C3.71431 3.64554 3.73502 3.6365 3.75982 3.62625C3.80942 3.60578 3.87552 3.58044 3.9607 3.55149C4.13088 3.49365 4.37849 3.42093 4.72454 3.34344C5.4157 3.18866 6.50789 3.01302 8.17347 2.9009C8.60681 2.87172 8.99347 3.17128 9.07351 3.59814L9.28279 4.71434H14.7172L14.9265 3.59814ZM7.90598 9.29652C6.95919 9.29652 6.19169 10.064 6.19169 11.0108C6.19169 11.9576 6.95919 12.7251 7.90598 12.7251C8.85274 12.7251 9.62026 11.9576 9.62026 11.0108C9.62026 10.064 8.85274 9.29652 7.90598 9.29652ZM13.906 11.0108C13.906 10.064 14.6735 9.29652 15.6203 9.29652C16.567 9.29652 17.3345 10.064 17.3345 11.0108C17.3345 11.9576 16.567 12.7251 15.6203 12.7251C14.6735 12.7251 13.906 11.9576 13.906 11.0108ZM7.03466 14.9755C6.69993 14.6407 6.15722 14.6407 5.82249 14.9755C5.48774 15.3102 5.48774 15.8529 5.82249 16.1876C6.47573 16.8409 7.67959 17.3733 9.03273 17.6913C9.92589 17.9011 10.9375 18.0307 12.0001 18.0307C13.0626 18.0307 14.0742 17.9011 14.9673 17.6913C16.3205 17.3733 17.5243 16.8409 18.1776 16.1876C18.5124 15.8529 18.5124 15.3102 18.1776 14.9755C17.8428 14.6407 17.3001 14.6407 16.9654 14.9755C16.6483 15.2926 15.8171 15.7306 14.5752 16.0224C13.8063 16.2031 12.9263 16.3162 12 16.3162C11.0738 16.3162 10.1937 16.2031 9.42487 16.0224C8.18301 15.7306 7.35178 15.2926 7.03466 14.9755Z" fill="#0C0F1D"/>
</g>
<defs>
<clipPath id="clip0_628_53701">
<rect width="24" height="24" fill="white"/>
</clipPath>
</defs>
</svg>
