<svg width="45" height="45" viewBox="0 0 45 45" fill="none" xmlns="http://www.w3.org/2000/svg">
<g clip-path="url(#clip0_82_11032)">
<path fill-rule="evenodd" clip-rule="evenodd" d="M27.9902 7.09658C28.137 6.31398 28.8458 5.76483 29.6403 5.81829C32.6941 6.02386 34.6964 6.34588 35.9636 6.62962C36.5978 6.7717 37.052 6.90502 37.3641 7.01106C37.5203 7.06415 37.6413 7.1106 37.7321 7.14812C37.7777 7.16692 37.8157 7.18348 37.8468 7.19762L37.8883 7.21689L37.9053 7.22509L37.9128 7.22883L37.9163 7.23059L37.9181 7.23147C37.9191 7.23188 37.9197 7.23232 37.217 8.63784L37.9181 7.23147C38.163 7.35376 38.3729 7.53862 38.5244 7.76617C40.1304 10.175 41.6424 14.1715 42.7519 18.4984C43.8698 22.8576 44.6253 27.7346 44.6253 31.9848C44.6253 32.295 44.5335 32.5983 44.3613 32.8567C43.1526 34.6695 39.3846 38.1153 33.1476 39.3627C32.5715 39.4777 31.9794 39.2621 31.6124 38.8033L27.0832 33.142C25.7007 33.4026 24.1932 33.5563 22.6251 33.5563C21.0571 33.5563 19.5495 33.4026 18.167 33.142L13.6378 38.8033C13.2709 39.2621 12.6786 39.4777 12.1026 39.3627C5.86549 38.1153 2.09758 34.6695 0.888921 32.8567C0.716831 32.5983 0.625 32.295 0.625 31.9848C0.625 27.7346 1.38047 22.8576 2.49823 18.4984C3.60768 14.1715 5.11979 10.175 6.72569 7.76617C6.87737 7.53862 7.08583 7.35461 7.33044 7.23232L8.03319 8.63784C7.33044 7.23232 7.33129 7.23188 7.33214 7.23147L7.33387 7.23059L7.33742 7.22883L7.34503 7.22509L7.36203 7.21689L7.40351 7.19762C7.43457 7.18348 7.47253 7.16692 7.51801 7.14812C7.60893 7.1106 7.73012 7.06415 7.88629 7.01106C8.19828 6.90502 8.65223 6.7717 9.28665 6.62965C10.5538 6.34588 12.5561 6.02386 15.6097 5.81832C16.4042 5.76483 17.113 6.31401 17.2598 7.09658L17.6434 9.14296H27.6066L27.9902 7.09658ZM15.1193 17.5436C13.3835 17.5436 11.9764 18.9507 11.9764 20.6865C11.9764 22.4223 13.3835 23.8293 15.1193 23.8293C16.855 23.8293 18.2621 22.4223 18.2621 20.6865C18.2621 18.9507 16.855 17.5436 15.1193 17.5436ZM26.1193 20.6865C26.1193 18.9507 27.5264 17.5436 29.2621 17.5436C30.9979 17.5436 32.4049 18.9507 32.4049 20.6865C32.4049 22.4223 30.9979 23.8293 29.2621 23.8293C27.5264 23.8293 26.1193 22.4223 26.1193 20.6865ZM13.5219 27.955C12.9082 27.3413 11.9132 27.3413 11.2996 27.955C10.6859 28.5687 10.6859 29.5636 11.2996 30.1773C12.4972 31.375 14.7042 32.351 17.185 32.934C18.8225 33.3187 20.6772 33.5563 22.6251 33.5563C24.5731 33.5563 26.4277 33.3187 28.0651 32.934C30.5459 32.351 32.7529 31.375 33.9506 30.1773C34.5644 29.5636 34.5644 28.5687 33.9506 27.955C33.3368 27.3413 32.3418 27.3413 31.7282 27.955C31.1469 28.5364 29.6229 29.3394 27.3462 29.8744C25.9366 30.2056 24.3231 30.4131 22.6251 30.4131C20.927 30.4131 19.3135 30.2056 17.9039 29.8744C15.6272 29.3394 14.1033 28.5364 13.5219 27.955Z" fill="#0C0F1D"/>
</g>
<defs>
<clipPath id="clip0_82_11032">
<rect width="44" height="44" fill="white" transform="translate(0.625 0.5)"/>
</clipPath>
</defs>
</svg>
