<svg width="68" height="43" viewBox="0 0 68 43" fill="none" xmlns="http://www.w3.org/2000/svg">
<path d="M67.4207 5.35212C66.9793 4.46881 66.2194 3.80997 65.2828 3.49722C64.3462 3.18448 63.3429 3.25571 62.4596 3.69713L62.4378 3.70744L0.203613 42.7867L65.7643 10.3131C66.6476 9.87172 67.3065 9.11188 67.6192 8.17517C67.932 7.23855 67.8607 6.23535 67.4193 5.35205L67.4207 5.35212Z" fill="black"/>
<path d="M49.001 5.1769C50.3457 4.55725 50.9416 2.96008 50.3281 1.61019C49.7121 0.255826 48.111 -0.344647 46.7554 0.26981L46.717 0.286461L6.34229 29.0544L49.001 5.1769Z" fill="black"/>
<path d="M51.3401 29.0603C52.4242 28.5121 52.8633 27.1858 52.3197 26.0977C51.7746 25.0066 50.443 24.5616 49.3519 25.108L49.3214 25.1236L23.3608 40.3021L51.34 29.0617L51.3401 29.0603Z" fill="black"/>
</svg>
