<svg width="45" height="45" viewBox="0 0 45 45" fill="none" xmlns="http://www.w3.org/2000/svg">
<g clip-path="url(#clip0_82_11035)">
<path d="M22.3752 1.01331C17.1378 1.01175 12.0716 2.87876 8.08759 6.27862C4.10362 9.67847 1.46327 14.3881 0.641313 19.5607C-0.180641 24.7333 0.869729 30.0294 3.60355 34.4967C6.33737 38.9641 10.5753 42.3096 15.5552 43.9316H16.0686C16.5369 43.9545 16.9961 43.797 17.3519 43.4916C17.5659 43.3052 17.7361 43.0738 17.8502 42.8139C17.9643 42.554 18.0195 42.272 18.0119 41.9883V41.6033V39.605C17.9972 39.486 17.9587 39.3712 17.8989 39.2673C17.8391 39.1633 17.7591 39.0725 17.6636 39C17.5592 38.9165 17.4379 38.8568 17.308 38.8251C17.1782 38.7934 17.043 38.7906 16.9119 38.8166C11.9802 39.88 10.9352 36.8 10.8802 36.5983C10.2601 34.9662 9.15277 33.5644 7.70857 32.5833L7.43357 32.3816C7.65005 32.2771 7.8907 32.2327 8.13024 32.2533C8.58715 32.322 9.01895 32.5063 9.3847 32.7886C9.75046 33.071 10.0381 33.442 10.2202 33.8666C10.9295 35.1015 12.09 36.0132 13.4577 36.4099C14.8255 36.8065 16.2937 36.6572 17.5536 35.9933C17.6897 35.9328 17.8101 35.8418 17.9055 35.7274C18.0008 35.613 18.0686 35.4781 18.1036 35.3333C18.1779 34.4917 18.5406 33.7017 19.1302 33.0966C19.2662 32.9794 19.3647 32.8248 19.4136 32.6521C19.4625 32.4794 19.4596 32.2961 19.4052 32.125C19.3552 31.9536 19.2552 31.8011 19.118 31.6868C18.9809 31.5725 18.8128 31.5016 18.6352 31.4833C14.2902 30.9883 9.83524 29.4666 9.83524 21.9683C9.80359 20.0827 10.4996 18.2575 11.7786 16.8716C11.8942 16.745 11.9711 16.588 12.0004 16.4191C12.0296 16.2502 12.0099 16.0764 11.9436 15.9183C11.4358 14.4882 11.4423 12.9258 11.9619 11.5C13.6549 11.8025 15.244 12.5277 16.5819 13.6083C16.6932 13.6844 16.8206 13.7339 16.9541 13.753C17.0876 13.7721 17.2237 13.7602 17.3519 13.7183C18.9906 13.2813 20.6792 13.0594 22.3752 13.0583C24.0778 13.0502 25.7737 13.2722 27.4169 13.7183C27.5421 13.76 27.6753 13.7718 27.8058 13.7527C27.9364 13.7336 28.0606 13.6842 28.1686 13.6083C29.5048 12.525 31.0946 11.7994 32.7886 11.5C33.2921 12.9108 33.2921 14.4525 32.7886 15.8633C32.7223 16.0227 32.7043 16.198 32.7369 16.3675C32.7695 16.5371 32.8512 16.6932 32.9719 16.8166C34.2311 18.1914 34.9194 19.9942 34.8969 21.8583C34.8969 29.375 30.4419 30.8783 26.0786 31.355C25.901 31.3733 25.7329 31.4441 25.5958 31.5584C25.4586 31.6727 25.3586 31.8253 25.3086 31.9966C25.2557 32.165 25.2536 32.3452 25.3025 32.5147C25.3514 32.6843 25.4492 32.8356 25.5836 32.95C25.9891 33.3733 26.2989 33.8789 26.4918 34.4325C26.6848 34.986 26.7564 35.5746 26.7019 36.1583V41.9883C26.6978 42.2733 26.7565 42.5557 26.8737 42.8155C26.9909 43.0753 27.1638 43.3061 27.3802 43.4916C27.6533 43.6997 27.9719 43.8399 28.3099 43.9004C28.6478 43.961 28.9952 43.9403 29.3236 43.84C34.2465 42.1647 38.4168 38.7998 41.0947 34.3422C43.7726 29.8847 44.785 24.6226 43.9522 19.4896C43.1194 14.3566 40.4953 9.68451 36.5454 6.30224C32.5955 2.91997 27.5753 1.04618 22.3752 1.01331Z" fill="#0C0F1D"/>
</g>
<defs>
<clipPath id="clip0_82_11035">
<rect width="44" height="44" fill="white" transform="translate(0.375 0.5)"/>
</clipPath>
</defs>
</svg>
