<svg width="24" height="24" viewBox="0 0 24 24" fill="none" xmlns="http://www.w3.org/2000/svg">
<g clip-path="url(#clip0_628_53704)">
<path fill-rule="evenodd" clip-rule="evenodd" d="M6.45684 7.50895C6.32823 7.52013 6.20028 7.48114 6.09977 7.40013L2.99977 4.90013C2.93768 4.86032 2.88496 4.80752 2.84526 4.74537C2.80555 4.68322 2.77979 4.6132 2.76977 4.54013C2.76345 4.47353 2.77084 4.40635 2.79148 4.34271C2.81212 4.27908 2.84557 4.22035 2.88977 4.17013C3.98675 2.89402 5.33987 1.8629 6.86125 1.14373C8.38264 0.424559 10.0383 0.0334128 11.7207 -0.00430875C13.403 -0.0420303 15.0745 0.274517 16.6266 0.924777C18.1787 1.57504 19.5767 2.54447 20.7298 3.77013C20.7763 3.81575 20.8133 3.87021 20.8386 3.93031C20.8638 3.99041 20.8768 4.05494 20.8768 4.12013C20.8768 4.18532 20.8638 4.24985 20.8386 4.30995C20.8133 4.37005 20.7763 4.42451 20.7298 4.47013L17.8098 7.21013C17.7633 7.25699 17.708 7.29419 17.6471 7.31958C17.5861 7.34496 17.5208 7.35803 17.4548 7.35803C17.3888 7.35803 17.3234 7.34496 17.2625 7.31958C17.2015 7.29419 17.1462 7.25699 17.0998 7.21013C16.4494 6.50827 15.6601 5.94935 14.7821 5.56889C13.9042 5.18843 12.9566 4.99474 11.9998 5.00013C11.0156 5.00202 10.043 5.2114 9.14526 5.6146C8.24753 6.01781 7.44491 6.60577 6.78977 7.34013C6.70474 7.43727 6.58544 7.49776 6.45684 7.50895ZM5.38855 14.5405C5.36376 14.6361 5.31223 14.7227 5.24001 14.7901L2.11001 17.6101C2.05222 17.6583 1.98501 17.6938 1.91268 17.7145C1.84036 17.7352 1.76451 17.7405 1.69001 17.7301C1.61308 17.7164 1.54044 17.6848 1.47792 17.6379C1.4154 17.591 1.36474 17.5302 1.33001 17.4601C0.453814 15.7737 -0.0024354 13.9007 9.77669e-06 12.0001C0.0154746 10.1998 0.435858 8.42597 1.23001 6.81015C1.26213 6.74205 1.30951 6.68226 1.36847 6.63544C1.42744 6.58861 1.4964 6.55601 1.57001 6.54015C1.6446 6.52354 1.72196 6.5239 1.79639 6.54121C1.87082 6.55852 1.94041 6.59233 2.00001 6.64015L5.20001 9.24015C5.28225 9.30245 5.34222 9.3896 5.37104 9.48867C5.39986 9.58773 5.39599 9.69345 5.36001 9.79015C5.12321 10.503 5.00168 11.249 5.00001 12.0001C5.00167 12.766 5.13007 13.5263 5.38001 14.2501C5.41038 14.3442 5.41335 14.4449 5.38855 14.5405ZM24 10.5001C23.9974 10.3683 23.9439 10.2426 23.8507 10.1494C23.7575 10.0562 23.6318 10.0027 23.5 10.0001H13.5C13.3674 10.0001 13.2402 10.0528 13.1464 10.1466C13.0527 10.2403 13 10.3675 13 10.5001V14.5001C13 14.6327 13.0527 14.7599 13.1464 14.8537C13.2402 14.9474 13.3674 15.0001 13.5 15.0001H18.34C18.0506 15.6135 17.6658 16.1772 17.2 16.6701C17.1171 16.762 17.0712 16.8814 17.0712 17.0051C17.0712 17.1289 17.1171 17.2482 17.2 17.3401L19.87 20.3401C19.9163 20.3928 19.9732 20.4352 20.0369 20.4645C20.1007 20.4938 20.1699 20.5093 20.24 20.5101C20.3086 20.5113 20.3767 20.4986 20.4403 20.4728C20.5039 20.4471 20.5616 20.4087 20.61 20.3601C22.6455 18.2714 23.8506 15.5128 24 12.6001V10.5001ZM15.244 18.306C15.3497 18.3275 15.4461 18.3814 15.5198 18.4601L18.2498 21.5801C18.2983 21.6353 18.3341 21.7005 18.3546 21.771C18.375 21.8415 18.3797 21.9157 18.3682 21.9883C18.3568 22.0608 18.3295 22.13 18.2883 22.1908C18.2471 22.2516 18.193 22.3026 18.1298 22.3401C15.7528 23.7496 12.9622 24.2955 10.2293 23.8855C7.49636 23.4756 4.98869 22.135 3.12983 20.0901C3.08297 20.0436 3.04577 19.9883 3.02039 19.9274C2.995 19.8665 2.98193 19.8011 2.98193 19.7351C2.98193 19.6691 2.995 19.6038 3.02039 19.5428C3.04577 19.4819 3.08297 19.4266 3.12983 19.3801L6.12983 16.7101C6.17546 16.6636 6.22991 16.6266 6.29001 16.6013C6.35011 16.5761 6.41464 16.563 6.47983 16.563C6.54502 16.563 6.60956 16.5761 6.66965 16.6013C6.72975 16.6266 6.78421 16.6636 6.82983 16.7101C7.82606 17.8154 9.15159 18.5707 10.6104 18.8643C12.0691 19.1578 13.5836 18.974 14.9298 18.3401C15.0285 18.2965 15.1383 18.2845 15.244 18.306Z" fill="#F7F7F7"/>
</g>
<defs>
<clipPath id="clip0_628_53704">
<rect width="24" height="24" fill="white"/>
</clipPath>
</defs>
</svg>
