<svg width="24" height="24" viewBox="0 0 24 24" fill="none" xmlns="http://www.w3.org/2000/svg">
<g clip-path="url(#clip0_628_53699)">
<path d="M12 0C9.62663 0 7.30655 0.703788 5.33316 2.02236C3.35977 3.34094 1.8217 5.21509 0.913451 7.4078C0.00519943 9.60051 -0.232441 12.0133 0.230582 14.3411C0.693605 16.6689 1.83649 18.8071 3.51472 20.4853C5.19295 22.1635 7.33115 23.3064 9.65892 23.7694C11.9867 24.2324 14.3995 23.9948 16.5922 23.0866C18.7849 22.1783 20.6591 20.6402 21.9776 18.6668C23.2962 16.6935 24 14.3734 24 12C24 8.8174 22.7357 5.76516 20.4853 3.51472C18.2349 1.26428 15.1826 0 12 0ZM15.46 18.71C15.4487 18.7536 15.427 18.7938 15.3968 18.8272C15.3666 18.8606 15.3289 18.8863 15.2867 18.902C15.2445 18.9177 15.1991 18.9229 15.1544 18.9174C15.1097 18.9118 15.0671 18.8956 15.03 18.87L9.92001 15.17C9.86534 15.1272 9.82661 15.0674 9.81001 15C9.80882 14.962 9.81631 14.9243 9.8319 14.8896C9.8475 14.8549 9.87079 14.8243 9.90001 14.8L14.49 10.8C14.5175 10.772 14.5329 10.7343 14.5329 10.695C14.5329 10.6557 14.5175 10.618 14.49 10.59C14.4676 10.5569 14.4343 10.5328 14.3959 10.5218C14.3575 10.5108 14.3165 10.5137 14.28 10.53L7.68001 13.88C7.64882 13.8951 7.61464 13.9029 7.58001 13.9029C7.54537 13.9029 7.51119 13.8951 7.48001 13.88L4.32001 12.74C4.26917 12.7183 4.2259 12.682 4.19564 12.6357C4.16539 12.5895 4.14951 12.5353 4.15001 12.48C4.14716 12.4255 4.16224 12.3715 4.19293 12.3264C4.22363 12.2812 4.26826 12.2474 4.32001 12.23L17.78 7.1C17.825 7.08108 17.8745 7.07573 17.9225 7.08461C17.9705 7.0935 18.0148 7.11623 18.05 7.15C18.0878 7.18285 18.116 7.22523 18.1319 7.27271C18.1477 7.3202 18.1505 7.37106 18.14 7.42L15.46 18.71Z" fill="#0C0F1D"/>
</g>
<defs>
<clipPath id="clip0_628_53699">
<rect width="24" height="24" fill="white"/>
</clipPath>
</defs>
</svg>
